<svg xmlns="http://www.w3.org/2000/svg" viewBox="0 0 957.29 1247.62"><defs><style>.cls-1{opacity:0.2;}.cls-2{fill:#4d5b73;}.cls-3{fill:none;}</style></defs><g id="Capa_2" data-name="Capa 2"><g id="Logo"><g class="cls-1"><path class="cls-2" d="M469.52,553.16c-9.21,4-19,5.89-28.76,7.69-10.94,2-22,2.11-33,1.86a153.54,153.54,0,0,1-53.43-11.1A162.07,162.07,0,0,1,302.75,519c-25.76-24.1-41.85-53.24-49-87.74-3.31-15.93-3.67-32-2.36-47.88a155.74,155.74,0,0,1,21.07-66,167.55,167.55,0,0,1,30.74-38.7,158.94,158.94,0,0,1,54.34-33.16,163.63,163.63,0,0,1,49.58-9.63,156.78,156.78,0,0,1,47.4,4.8c0,9.89,0,19.77-.06,29.65q-.11,22.82-.29,45.63c-9.93-3.61-19.86-7.58-30.47-8.28-14.12-.94-28,.26-41.48,5.5a93.07,93.07,0,0,0-41.69,31.59,90,90,0,0,0-17.78,47.08c-1.67,19.28,2.81,37.37,12.57,54.1a85.5,85.5,0,0,0,20.79,24.24c14.31,11.3,30.42,18.41,49,20.34,14.84,1.55,28.72-.76,42.54-5.73,7.89-2.83,14.65-7.6,21.89-11.55Z"/><path class="cls-2" d="M740.69,464.51c0-30.12-.46-60.25.14-90.37A140.88,140.88,0,0,1,761,303.51a113,113,0,0,1,18.75-24c17.53-16.68,38.41-27.07,62.09-32.42,17.06-3.86,34.22-3.68,51.45-3.55,3.21,0,6.41.87,9.68,1s3.62,2.7,3.61,5.45c-.05,17.42,0,34.84,0,52.25,0,4.55.06,9.1,0,13.65-.07,4.28-1.68,5.11-5.86,4.54-24.22-3.27-46.61.52-64.07,19.21a54.66,54.66,0,0,0-14.72,37.84c-.26,59.78-.11,119.56-.11,179.33,0,7,0,7-7,7-22.91,0-45.81-.14-68.72.06-4.49,0-5.51-1.41-5.49-5.66C740.76,527,740.69,495.74,740.69,464.51Z"/><path class="cls-2" d="M693.65,481.61c0,51.62,0,24.78.1,76.4,0,4.56-1.29,5.84-5.82,5.8-23.06-.22-46.13-.18-69.19,0-3.77,0-5.2-.88-5.2-5,.11-103.71.1-129,0-232.67,0-3.32.89-4.17,4.17-4.15,23.7.13,47.39.21,71.08-.08,4.53-.06,4.93,1.56,4.92,5.33Q693.57,404.41,693.65,481.61Z"/><path class="cls-2" d="M454.18,316q.15-22.81.29-45.63c0-9.88,0-19.76.06-29.65,7,.66,13.42,3.49,19.79,5.94A163,163,0,0,1,576.11,373.8a164.14,164.14,0,0,1,1.47,38.68,159.51,159.51,0,0,1-32.82,85.86,162.07,162.07,0,0,1-62.87,50.16c-4,1.8-7.8,4.32-12.37,4.66q0-40,0-79.92c5.3-5.62,11.48-10.3,16.29-16.51,17.42-22.52,24.23-47.57,18.52-75.59a90.21,90.21,0,0,0-26-47.55C471.06,326.48,462.51,321.45,454.18,316Z"/><path class="cls-2" d="M656.29,290q-16.71,0-33.41,0c-1.65,0-3.73.57-4.38-1.65-.6-2.07,1.11-3,2.58-3.93l68.54-42.6c2.55-1.58,4-.58,4,2.13.08,14.58,0,29.17.07,43.76,0,2.87-1.89,2.31-3.51,2.32q-16.95,0-33.88,0Z"/><rect class="cls-3" width="957.29" height="572.81"/><path class="cls-2" d="M665.65,615.41c7.18-2.71,14.8-3.45,22.28-4.63,11.23-1.76,22.64-1.73,34-1.15A198.78,198.78,0,0,1,836.06,652a196,196,0,0,1,44,48.69A198.75,198.75,0,0,1,910.77,823a194.55,194.55,0,0,1-20.34,73.63,203.56,203.56,0,0,1-28.68,42.47c-18.74,21.54-41.25,37.78-67,49.65a181.06,181.06,0,0,1-48.29,14.59c-12.47,1.93-25,3.69-37.5,3.08-15-.74-30.11-1.51-44.54-6.5q0-45.78.08-91.55a114.53,114.53,0,0,0,52.2,10.57,106.35,106.35,0,0,0,54.35-16.41c21.51-13.54,37.36-32.21,46-56.3,5.91-16.48,8.73-33.4,6.16-51.15-2-13.59-5.31-26.7-11.84-38.61-7-12.78-15.75-24.27-27.27-33.78a112.64,112.64,0,0,0-67.93-26.3c-17.57-.86-34.39,3.43-50.54,10.31Z"/><path class="cls-2" d="M664.51,908.32q0,45.78-.08,91.55c-10.47-1.32-20.12-5.36-29.74-9.33a182.49,182.49,0,0,1-45.12-26.68,200.65,200.65,0,0,1-71.94-119,143.21,143.21,0,0,1-2.78-24c-.14-8.23-.55-16.37-.11-24.68a197.13,197.13,0,0,1,15.12-65.66c8.91-21.47,21.57-40.42,37.34-57.59C593.79,644,626.29,625.37,664,615.24a5.2,5.2,0,0,1,1.68.17v91.24a19.41,19.41,0,0,1-2.23,1.51c-21.4,10.8-38,26.71-49.15,47.85s-14.8,43.66-11.54,67.51c3.42,25.14,14.77,46,32.22,63.88C643.49,896.14,653.85,902.5,664.51,908.32Z"/><rect class="cls-3" y="674.81" width="957.29" height="572.81"/><rect class="cls-3" width="957.29" height="596.35"/><rect class="cls-3" x="235.4" y="561.04" width="721.89" height="490.42"/><rect class="cls-2" x="374" y="609.28" width="82.98" height="351.94"/></g></g></g></svg>