<svg xmlns="http://www.w3.org/2000/svg" viewBox="0 0 134.69 175.53"><defs><style>.cls-1{fill:#4d5b73;}.cls-2{fill:none;}</style></defs><g id="Capa_2" data-name="Capa 2"><g id="Logo"><path class="cls-1" d="M66.06,77.83A18.35,18.35,0,0,1,62,78.91a22.55,22.55,0,0,1-4.64.26,21.55,21.55,0,0,1-7.52-1.56A23.16,23.16,0,0,1,35.7,60.68a23.9,23.9,0,0,1-.33-6.74,21.78,21.78,0,0,1,3-9.29,23.28,23.28,0,0,1,4.32-5.44,22.31,22.31,0,0,1,7.65-4.67,22.93,22.93,0,0,1,7-1.35,22,22,0,0,1,6.67.67c0,1.39,0,2.78,0,4.17q0,3.21,0,6.42a15.68,15.68,0,0,0-4.29-1.16,13.35,13.35,0,0,0-5.83.77,13.07,13.07,0,0,0-5.87,4.45,12.81,12.81,0,0,0-.73,14.23,12,12,0,0,0,2.92,3.41A13,13,0,0,0,63,68.21a22.09,22.09,0,0,0,3.08-1.63Z"/><path class="cls-1" d="M104.21,65.36c0-4.24-.06-8.48,0-12.72a19.8,19.8,0,0,1,2.84-9.94,15.78,15.78,0,0,1,2.64-3.38,18.27,18.27,0,0,1,8.73-4.56,32,32,0,0,1,7.24-.5c.45,0,.9.13,1.36.14s.51.38.51.77c0,2.45,0,4.9,0,7.35,0,.64,0,1.28,0,1.92s-.24.72-.83.64c-3.41-.46-6.56.07-9,2.7a7.63,7.63,0,0,0-2.07,5.33c0,8.41,0,16.82,0,25.23,0,1,0,1-1,1-3.22,0-6.45,0-9.67,0-.63,0-.77-.2-.77-.8C104.22,74.14,104.21,69.75,104.21,65.36Z"/><path class="cls-1" d="M97.59,67.76c0,7.26,0,3.49,0,10.75,0,.64-.18.82-.82.82-3.25,0-6.49,0-9.74,0-.53,0-.73-.12-.73-.7,0-14.59,0-18.14,0-32.74,0-.46.13-.58.59-.58,3.33,0,6.67,0,10,0,.64,0,.69.22.69.75Q97.59,56.9,97.59,67.76Z"/><path class="cls-1" d="M63.9,44.45q0-3.21,0-6.42c0-1.39,0-2.78,0-4.17a10.28,10.28,0,0,1,2.78.84A22.9,22.9,0,0,1,73,38.4a22.67,22.67,0,0,1,4.79,5.5,22.92,22.92,0,0,1,3.23,8.69,23.13,23.13,0,0,1-4.41,17.52,22.83,22.83,0,0,1-8.85,7.06,5.4,5.4,0,0,1-1.74.66V66.58a31.33,31.33,0,0,0,2.29-2.32A12.58,12.58,0,0,0,71,53.63a12.74,12.74,0,0,0-3.66-6.7A22.23,22.23,0,0,0,63.9,44.45Z"/><path class="cls-1" d="M92.34,40.8h-4.7c-.24,0-.53.08-.62-.23s.16-.43.36-.56L97,34c.35-.22.56-.08.56.3,0,2,0,4.1,0,6.16,0,.4-.27.32-.5.32-1.59,0-3.17,0-4.76,0Z"/><rect class="cls-2" width="134.69" height="80.59"/><path class="cls-1" d="M93.65,86.59a15.39,15.39,0,0,1,3.14-.66,23.85,23.85,0,0,1,4.78-.16,27.86,27.86,0,0,1,16.06,6,27.5,27.5,0,0,1,6.19,6.85,28,28,0,0,1,4.32,17.21,27.35,27.35,0,0,1-2.86,10.35,28.32,28.32,0,0,1-4,6,27.58,27.58,0,0,1-9.42,7,29.36,29.36,0,0,1-12.07,2.48,22.22,22.22,0,0,1-6.27-.91q0-6.45,0-12.88a16.17,16.17,0,0,0,7.35,1.48,14.87,14.87,0,0,0,7.64-2.3,15.39,15.39,0,0,0,6.48-7.93,14.77,14.77,0,0,0,.87-7.19,16,16,0,0,0-1.67-5.44,16.24,16.24,0,0,0-3.84-4.75,15.9,15.9,0,0,0-9.55-3.7,16.09,16.09,0,0,0-7.12,1.45Z"/><path class="cls-1" d="M93.49,127.8q0,6.44,0,12.88a16.54,16.54,0,0,1-4.18-1.32A25.55,25.55,0,0,1,83,135.61a28.18,28.18,0,0,1-7.15-8.5,27.68,27.68,0,0,1-3-8.24,20,20,0,0,1-.39-3.38c0-1.16-.08-2.3,0-3.47a27.67,27.67,0,0,1,2.13-9.24,27.32,27.32,0,0,1,5.25-8.1,27.83,27.83,0,0,1,13.62-8.12c.07,0,.15,0,.23,0V99.42a2.11,2.11,0,0,1-.31.21,15.53,15.53,0,0,0-6.91,6.74,15.3,15.3,0,0,0-1.63,9.5,15.62,15.62,0,0,0,4.53,9A17.36,17.36,0,0,0,93.49,127.8Z"/><rect class="cls-2" y="94.94" width="134.69" height="80.59"/><rect class="cls-2" width="134.69" height="83.9"/><rect class="cls-2" x="33.12" y="78.94" width="101.57" height="69"/><rect class="cls-1" x="52.62" y="85.72" width="11.68" height="49.52"/></g></g></svg>