<svg xmlns="http://www.w3.org/2000/svg" viewBox="0 0 92.95 108.45"><defs><style>.cls-1{fill:#4d5b73;}</style></defs><g id="Capa_2" data-name="Capa 2"><g id="Logo"><path class="cls-1" d="M91.77,1.24c-.46,0-.91-.13-1.36-.14a31.45,31.45,0,0,0-7.24.5,18.18,18.18,0,0,0-8.73,4.56A15.78,15.78,0,0,0,71.8,9.54,19.8,19.8,0,0,0,69,19.48c-.08,4.24,0,8.48,0,12.71,0,4.4,0,8.79,0,13.18,0,.6.14.8.77.8,3.22,0,6.45,0,9.67,0,1,0,1,0,1-1,0-8.41,0-16.83,0-25.24a7.68,7.68,0,0,1,2.08-5.32c2.45-2.63,5.6-3.16,9-2.7.59.08.81,0,.82-.64s0-1.28,0-1.92c0-2.45,0-4.9,0-7.35C92.28,1.62,92.22,1.26,91.77,1.24Z"/><path class="cls-1" d="M62.32,34.6q0-10.86,0-21.72c0-.53,0-.76-.69-.75-3.33,0-6.67,0-10,0-.46,0-.59.12-.59.58,0,14.59,0,18.15,0,32.74,0,.57.2.7.73.7,3.25,0,6.49,0,9.74,0,.63,0,.82-.17.82-.81C62.31,38.09,62.32,41.86,62.32,34.6Z"/><path class="cls-1" d="M42.56,10.74a22.76,22.76,0,0,0-11.1-9.2A10.28,10.28,0,0,0,28.68.7,22.34,22.34,0,0,0,22,0a23.37,23.37,0,0,0-7,1.36A22.27,22.27,0,0,0,7.39,6.05a23.58,23.58,0,0,0-4.33,5.44,21.91,21.91,0,0,0-3,9.29,23.9,23.9,0,0,0,.33,6.74A23.11,23.11,0,0,0,14.58,44.45,21.49,21.49,0,0,0,22.09,46a23.33,23.33,0,0,0,4.65-.26,18.92,18.92,0,0,0,4.05-1.08A5.4,5.4,0,0,0,32.53,44,22.8,22.8,0,0,0,41.37,37,22.42,22.42,0,0,0,46,24.87a23.11,23.11,0,0,0-.21-5.44A22.74,22.74,0,0,0,42.56,10.74ZM33.08,31.1c-.68.87-1.55,1.53-2.29,2.32a22.09,22.09,0,0,1-3.08,1.63,13.24,13.24,0,0,1-6,.8A13.11,13.11,0,0,1,14.83,33a12,12,0,0,1-2.92-3.41,12.83,12.83,0,0,1,.73-14.24,13,13,0,0,1,11.7-5.21,15.68,15.68,0,0,1,4.29,1.16A22.73,22.73,0,0,1,32,13.77a12.75,12.75,0,0,1,3.66,6.69A12.6,12.6,0,0,1,33.08,31.1Z"/><path class="cls-1" d="M52.36,7.64h9.47c.23,0,.5.08.5-.32,0-2.06,0-4.11,0-6.16,0-.38-.21-.52-.56-.3l-9.65,6c-.21.13-.45.26-.36.56S52.13,7.64,52.36,7.64Z"/><path class="cls-1" d="M92.18,74a28.23,28.23,0,0,0-3.63-8.53,27.5,27.5,0,0,0-6.19-6.85A28.17,28.17,0,0,0,76,54.79a27.83,27.83,0,0,0-9.67-2.18,23.06,23.06,0,0,0-4.77.16,15.92,15.92,0,0,0-3.14.65c-.08,0-.16,0-.23,0a27.79,27.79,0,0,0-13.62,8.12,27.32,27.32,0,0,0-5.25,8.1,27.67,27.67,0,0,0-2.13,9.24c-.06,1.17,0,2.31,0,3.47a20,20,0,0,0,.39,3.38,27.68,27.68,0,0,0,3,8.24,28.18,28.18,0,0,0,7.15,8.5A25.37,25.37,0,0,0,54,106.2a16.54,16.54,0,0,0,4.18,1.32,22.22,22.22,0,0,0,6.27.91,26,26,0,0,0,5.27-.43,25.58,25.58,0,0,0,6.8-2.06A27.55,27.55,0,0,0,86,99a28.57,28.57,0,0,0,4-6,27.4,27.4,0,0,0,2.86-10.36A27.87,27.87,0,0,0,92.18,74ZM79.69,85.89a15.33,15.33,0,0,1-6.48,7.92,14.91,14.91,0,0,1-7.64,2.31,16.12,16.12,0,0,1-7.35-1.48,17.16,17.16,0,0,1-4.16-3,15.61,15.61,0,0,1-4.53-9,15.35,15.35,0,0,1,1.62-9.49,15.6,15.6,0,0,1,6.92-6.74,2.11,2.11,0,0,0,.31-.21,16,16,0,0,1,7.11-1.45,15.85,15.85,0,0,1,9.56,3.7,16.24,16.24,0,0,1,3.84,4.75,15.72,15.72,0,0,1,1.66,5.44A14.77,14.77,0,0,1,79.69,85.89Z"/><rect class="cls-1" x="17.35" y="52.56" width="11.68" height="49.52"/></g></g></svg>