<svg xmlns="http://www.w3.org/2000/svg" viewBox="0 0 114.86 134.02"><defs><style>.cls-1{fill:#dee6e8;}</style></defs><g id="Capa_2" data-name="Capa 2"><g id="Capa_1-2" data-name="Capa 1"><path class="cls-1" d="M38.05,55.2a22.78,22.78,0,0,1-5,1.33,27.72,27.72,0,0,1-5.75.33A26.91,26.91,0,0,1,18,54.93a28.38,28.38,0,0,1-9-5.67A28.13,28.13,0,0,1,.53,34a29.48,29.48,0,0,1-.41-8.32A27.1,27.1,0,0,1,3.79,14.2,29.07,29.07,0,0,1,9.13,7.47,27.6,27.6,0,0,1,18.58,1.7,28.66,28.66,0,0,1,27.2,0a27.2,27.2,0,0,1,8.24.84c0,1.71,0,3.43,0,5.15q0,4,0,7.93a20,20,0,0,0-5.3-1.44,16.6,16.6,0,0,0-7.21,1A16.24,16.24,0,0,0,15.62,19a15.85,15.85,0,0,0-.9,17.6,14.76,14.76,0,0,0,3.61,4.21,16.19,16.19,0,0,0,8.52,3.54,16.42,16.42,0,0,0,7.39-1,27.15,27.15,0,0,0,3.81-2Z"/><path class="cls-1" d="M85.19,39.78c0-5.23-.07-10.47,0-15.71a24.53,24.53,0,0,1,3.51-12.28A19.52,19.52,0,0,1,92,7.62,22.42,22.42,0,0,1,102.78,2a39,39,0,0,1,9-.62c.56,0,1.11.15,1.68.17s.63.47.63,1q0,4.55,0,9.09c0,.79,0,1.58,0,2.37s-.29.89-1,.79c-4.21-.57-8.1.09-11.14,3.34a9.48,9.48,0,0,0-2.56,6.58c0,10.39,0,20.78,0,31.18,0,1.21,0,1.21-1.21,1.21-4,0-8,0-12,0-.78,0-.95-.24-.95-1C85.21,50.64,85.19,45.21,85.19,39.78Z"/><path class="cls-1" d="M77,42.76c0,9,0,4.3,0,13.28,0,.79-.22,1-1,1-4,0-8,0-12,0-.65,0-.9-.15-.9-.86,0-18,0-22.43,0-40.46,0-.57.15-.72.73-.72,4.11,0,8.23,0,12.35,0,.79,0,.86.27.86.92Q77,29.34,77,42.76Z"/><path class="cls-1" d="M35.38,14q0-4,0-7.93c0-1.72,0-3.44,0-5.15a12.78,12.78,0,0,1,3.44,1A28.2,28.2,0,0,1,52.6,13.27a28.9,28.9,0,0,1,4.24,17.47,27.83,27.83,0,0,1-5.71,14.93A28.35,28.35,0,0,1,40.2,54.39a6.59,6.59,0,0,1-2.15.81V41.3c.92-1,2-1.79,2.83-2.87A15.9,15.9,0,0,0,39.58,17,27.21,27.21,0,0,0,35.38,14Z"/><path class="cls-1" d="M70.52,9.44H64.71c-.29,0-.65.1-.76-.29s.19-.52.45-.68L76.32,1.06c.44-.27.69-.1.69.37C77,4,77,6.5,77,9c0,.5-.33.4-.61.4H70.52Z"/><path class="cls-1" d="M72.15,66a19,19,0,0,1,3.87-.8,28.48,28.48,0,0,1,5.91-.2,34.43,34.43,0,0,1,19.85,7.36,34.1,34.1,0,0,1,7.65,8.46,34.52,34.52,0,0,1,5.34,21.27,33.76,33.76,0,0,1-3.54,12.8,35.22,35.22,0,0,1-5,7.38,34,34,0,0,1-11.64,8.63,31.14,31.14,0,0,1-8.4,2.54,32.56,32.56,0,0,1-6.52.54,27.76,27.76,0,0,1-7.74-1.13q0-8,0-15.92A20.09,20.09,0,0,0,81,118.79a18.52,18.52,0,0,0,9.45-2.86,19,19,0,0,0,8-9.79,18.26,18.26,0,0,0,1.08-8.89,19.21,19.21,0,0,0-6.8-12.58,19.59,19.59,0,0,0-11.81-4.58,19.94,19.94,0,0,0-8.79,1.79Z"/><path class="cls-1" d="M72,117q0,8,0,15.92a19.83,19.83,0,0,1-5.17-1.63,31.76,31.76,0,0,1-7.85-4.63,34.94,34.94,0,0,1-12.51-20.69,24.22,24.22,0,0,1-.48-4.18c0-1.43-.1-2.84,0-4.29A34.56,34.56,0,0,1,71.86,66a1,1,0,0,1,.29,0V81.88a3.39,3.39,0,0,1-.39.27,19.14,19.14,0,0,0-8.54,8.32,18.92,18.92,0,0,0-2,11.74,19.25,19.25,0,0,0,5.6,11.1A21.3,21.3,0,0,0,72,117Z"/><rect class="cls-1" x="21.44" y="64.95" width="14.43" height="61.19"/></g></g></svg>