<svg xmlns="http://www.w3.org/2000/svg" viewBox="0 0 114.86 134.02"><defs><style>.cls-1{fill:#dee6e8;}</style></defs><g id="Capa_2" data-name="Capa 2"><g id="Capa_1-2" data-name="Capa 1"><path class="cls-1" d="M113.41,1.53c-.57,0-1.12-.16-1.68-.17a39,39,0,0,0-9,.62A22.42,22.42,0,0,0,92,7.62a19.52,19.52,0,0,0-3.26,4.17,24.53,24.53,0,0,0-3.51,12.28c-.1,5.24,0,10.48,0,15.71,0,5.43,0,10.86,0,16.29,0,.74.17,1,.95,1,4,0,8,0,12,0,1.21,0,1.21,0,1.21-1.21,0-10.4,0-20.79,0-31.18a9.48,9.48,0,0,1,2.56-6.58c3-3.25,6.93-3.91,11.14-3.34.73.1,1-.05,1-.79s0-1.58,0-2.37q0-4.55,0-9.09C114,2,114,1.55,113.41,1.53Z"/><path class="cls-1" d="M77,42.76q0-13.42,0-26.85c0-.65-.07-.93-.86-.92-4.12,0-8.24,0-12.35,0-.58,0-.73.15-.73.72,0,18,0,22.42,0,40.46,0,.71.25.86.9.86,4,0,8,0,12,0,.79,0,1-.22,1-1C77,47.06,77,51.73,77,42.76Z"/><path class="cls-1" d="M52.6,13.27A28.2,28.2,0,0,0,38.88,1.9a12.78,12.78,0,0,0-3.44-1A27.2,27.2,0,0,0,27.2,0,28.66,28.66,0,0,0,18.58,1.7,27.6,27.6,0,0,0,9.13,7.47,29.07,29.07,0,0,0,3.79,14.2,27.1,27.1,0,0,0,.12,25.68,29.48,29.48,0,0,0,.53,34,28.13,28.13,0,0,0,9.05,49.26a28.38,28.38,0,0,0,9,5.67,26.91,26.91,0,0,0,9.29,1.93,27.72,27.72,0,0,0,5.75-.33,22.78,22.78,0,0,0,5-1.33,6.59,6.59,0,0,0,2.15-.81,28.35,28.35,0,0,0,10.93-8.72,27.83,27.83,0,0,0,5.71-14.93A28.9,28.9,0,0,0,52.6,13.27ZM40.88,38.43C40,39.51,39,40.32,38.05,41.3a27.15,27.15,0,0,1-3.81,2,16.42,16.42,0,0,1-7.39,1,16.19,16.19,0,0,1-8.52-3.54,14.76,14.76,0,0,1-3.61-4.21,15.85,15.85,0,0,1,.9-17.6,16.24,16.24,0,0,1,7.25-5.49,16.6,16.6,0,0,1,7.21-1A20,20,0,0,1,35.38,14,27.21,27.21,0,0,1,39.58,17a15.9,15.9,0,0,1,1.3,21.41Z"/><path class="cls-1" d="M64.71,9.44h11.7c.28,0,.61.1.61-.4C77,6.5,77,4,77,1.43c0-.47-.25-.64-.69-.37L64.4,8.47c-.26.16-.56.32-.45.68S64.42,9.44,64.71,9.44Z"/><path class="cls-1" d="M113.92,91.39a35,35,0,0,0-4.49-10.55,34.1,34.1,0,0,0-7.65-8.46A34.43,34.43,0,0,0,81.93,65a28.48,28.48,0,0,0-5.91.2,19,19,0,0,0-3.87.8,1,1,0,0,0-.29,0A34.4,34.4,0,0,0,45.91,97.45c-.08,1.45,0,2.86,0,4.29a24.22,24.22,0,0,0,.48,4.18,34.94,34.94,0,0,0,12.51,20.69,31.76,31.76,0,0,0,7.85,4.63,19.83,19.83,0,0,0,5.17,1.63A27.76,27.76,0,0,0,79.68,134a32.56,32.56,0,0,0,6.52-.54,31.14,31.14,0,0,0,8.4-2.54,34,34,0,0,0,11.64-8.63,35.22,35.22,0,0,0,5-7.38,33.76,33.76,0,0,0,3.54-12.8A35.18,35.18,0,0,0,113.92,91.39ZM98.47,106.14a19,19,0,0,1-8,9.79A18.52,18.52,0,0,1,81,118.79,20.09,20.09,0,0,1,72,117a21.3,21.3,0,0,1-5.14-3.64,19.25,19.25,0,0,1-5.6-11.1,19,19,0,0,1,2-11.74,19.21,19.21,0,0,1,8.55-8.32,3.39,3.39,0,0,0,.39-.27,19.94,19.94,0,0,1,8.79-1.79,19.59,19.59,0,0,1,11.81,4.58,19.21,19.21,0,0,1,6.8,12.58A18.26,18.26,0,0,1,98.47,106.14Z"/><rect class="cls-1" x="21.44" y="64.95" width="14.43" height="61.19"/></g></g></svg>